#!OML:ASF E:/inclinewalkrobotboard/Project1/Captureday1/Session1/subject1.ASF
:FULLY-SPECIFIED
:DEGREES
201
root 0 0 0 -5.874905099595143 -23.719754781964067 4.113582973837611
lowerback 10.79013285645438 -0.5107018845400384 -5.646574307529623
upperback 5.1346511903310645 -1.2923751649140602 -1.1801868909208935
thorax -0.5336151441207342 -0.6714197466346403 2.0411113863220764
lowerneck 3.4924696763816137 -4.131978031753416 -10.425095486004547
upperneck 11.505087543801386 -6.4012357434723945 13.250256451245791
head 3.539893435485555 -3.22149340748322 5.691225967587059
rclavicle -3.9362608885044124E-15 4.0201595727680385E-16
rhumerus 13.85972840129825 -14.31002742260598 -57.96223881639894
rradius 24.856457625810357
rwrist 35.1234817877313
rhand -16.01042103004161 13.606836604104846
rfingers 7.125020000000038
rthumb 10.198476280035994 -16.25130984586027
lclavicle -6.93905393773999E-16 2.550422599507947E-16
lhumerus 20.672940295922366 -31.997301307951105 68.24603445585312
lradius 126.2158496336991
lwrist 55.5610626058813
lhand -27.73593700960615 43.24597097650293
lfingers 7.1490739697429415
lthumb -0.9586552115722977 52.89096370794745
rfemur -38.66887753137873 5.5446478955207095 4.606156566596507
rtibia 57.73565399166546
rfoot -4.2533953672517 -9.790672149397743
rtoes -6.282185652891376
lfemur -4.274079007595278 -5.251327767247787 -15.010017497314694
ltibia 24.74133454830988
lfoot -17.507529772754364 14.804107068271572
ltoes -1.3763535516190837
202
root 0 0 0 -5.633957185193827 -23.28146672441137 3.8542606210557278
lowerback 10.924047693109909 -0.44808547900902873 -5.573112243366029
upperback 5.1272904853140835 -1.2069688122667754 -1.1734578841578114
thorax -0.6202256493943159 -0.628900047573112 1.9957377705787256
lowerneck 3.3381205259637943 -4.343422761254692 -10.456409236390428
upperneck 11.27899312823477 -6.6825731954001455 13.41621666051715
head 3.5234277876180826 -3.348816080847247 5.731690764087797
rclavicle -3.675223491984102E-15 2.2436631643240955E-16
rhumerus 6.1791368981703165 -10.383498462892277 -61.93599496529037
rradius 19.375248717781744
rwrist 37.98905656664916
rhand -12.467994487137208 15.960573595519493
rfingers 7.125020000000039
rthumb 13.600817543905308 -13.841143217129064
lclavicle -6.682008593215774E-16 2.652400362684381E-16
lhumerus 20.172322391140685 -32.555034206352175 68.73389349585533
lradius 126.57458336016666
lwrist 55.58886092079257
lhand -27.54328575353359 43.29471101407166
lfingers 7.1486560191057755
lthumb -0.7737576279820733 52.86894006609664
rfemur -38.599127328140646 5.461173082249104 4.688007221865442
rtibia 57.808272633293726
rfoot -4.187792438272526 -9.80309516927314
rtoes -6.172702133394009
lfemur -4.355749483881299 -5.254714695991 -14.991169410418758
ltibia 24.819387188810655
lfoot -17.42336179521015 14.723990710781585
ltoes -1.39731183985052
203
root 0 0 0 -5.116671003974884 -22.632250022993155 3.4132059635521115
lowerback 11.291079048194746 -0.3185173207436318 -5.399927558731971
upperback 5.152227706078246 -1.0321185996081048 -1.1556414284712853
thorax -0.8055997400152941 -0.5422650653428106 1.893425270563367
lowerneck 3.051983979956745 -4.687525909650909 -10.467915819971438
upperneck 10.72219294903093 -7.127381236558849 13.648829962075334
head 3.4435048450827885 -3.5502960024148136 5.781818980936299
rclavicle -3.501410704701843E-15 9.084399458212848E-17
rhumerus -3.917185142682974 -5.168011025990769 -67.16554587696874
rradius 12.623354049153079
rwrist 41.53150976329934
rhand -7.964381851075592 18.951271604502537
rfingers 7.125020000000037
rthumb 17.922529154010768 -10.780789869047293
lclavicle -6.351165385364189E-16 2.931157844121246E-16
lhumerus 19.022182390437365 -33.74800264730684 69.81676852530094
lradius 127.24602618026944
lwrist 55.5495646471815
lhand -27.088898044949637 43.377662423233176
lfingers 7.147746888911721
lthumb -0.337276836137697 52.821397472345694
rfemur -38.194996951035165 5.436338824318052 4.945905586412831
rtibia 57.61958155719043
rfoot -4.110604884654856 -9.800898467244753
rtoes -5.92098702985157
lfemur -4.660863477688451 -5.228092563655412 -14.929093226395135
ltibia 25.16649253043896
lfoot -17.165400199455007 14.444403610810241
ltoes -1.4892601747942074
204
root 0 0 0 -4.31774565842864 -21.786754948198418 2.7515800500252743
lowerback 11.90762892828011 -0.12271218379063287 -5.132232384424999
upperback 5.2049871605106635 -0.7700488502216349 -1.1218814601938307
thorax -1.1025171867054435 -0.4127692623262095 1.7419088995368286
lowerneck 2.6150435176558897 -5.2235715535825396 -10.487373086475223
upperneck 9.786873629575942 -7.817883342867072 14.021629953212422
head 3.2935887358362734 -3.8631539827431363 5.8635478411886295
rclavicle -3.494320265941967E-15 7.213290669370677E-17
rhumerus -6.721230841803408 -3.8168380476972263 -68.59226835190921
rradius 10.846124637240223
rwrist 42.47709088810022
rhand -6.765705064305539 19.791694019625506
rfingers 7.1250200000000365
rthumb 19.07004449370972 -9.919658675760761
lclavicle -5.571807204773687E-16 2.8982478847764698E-16
lhumerus 18.19012160246511 -34.563001856945654 70.58246131213133
lradius 127.66193873043848
lwrist 55.47219269263689
lhand -26.762653595431352 43.421900399977254
lfingers 7.147033641614001
lthumb -0.023469964609311944 52.79738549295253
rfemur -38.03243201986098 5.312666152329259 5.109791989111139
rtibia 57.72802844946632
rfoot -3.8726707942059235 -9.732164039903854
rtoes -5.655579003705986
lfemur -5.008898872251137 -5.187562619354608 -14.853698299820964
ltibia 25.562300158593985
lfoot -16.9126698075069 14.154791109549624
ltoes -1.612966290571288
205
root 0 0 0 -3.3339248826017367 -20.82979280357563 1.879419380721983
lowerback 12.667709026183427 0.13115979623263552 -4.753488900176036
upperback 5.24249308413692 -0.4264938730637555 -1.0730229134277005
thorax -1.4959444040260632 -0.2431248247163953 1.5339968194969626
lowerneck 1.96946699086568 -5.865950204870385 -10.474935654837935
upperneck 8.52484022227074 -8.632769074191579 14.417279627388302
head 3.0874378181648785 -4.229814766110463 5.937409201029343
rclavicle -3.4983448130944945E-15 7.432864619467158E-17
rhumerus -7.880098236795201 -3.2234950014559676 -69.202576332795
rradius 10.272133900515719
rwrist 42.758255901416646
rhand -6.326742572530685 20.080726234726704
rfingers 7.1250200000000365
rthumb 19.48907339931306 -9.619509006459019
lclavicle -4.843827970499638E-16 2.838394157709236E-16
lhumerus 17.25579854159246 -35.405637123377694 71.41417689842298
lradius 127.97485856654906
lwrist 55.26497731043122
lhand -26.37650183623046 43.439992933693865
lfingers 7.14635599958796
lthumb 0.3484209521379409 52.81064485602843
rfemur -37.791587912306774 5.1556996545816025 5.33689767454627
rtibia 57.86639418951704
rfoot -3.5876894147807548 -9.631646107171283
rtoes -5.31811335292307
lfemur -5.5481657347797295 -5.079840411122678 -14.735472215671141
ltibia 26.20773042657123
lfoot -16.610804190124167 13.781073222766906
ltoes -1.8056707994389272
